<svg xmlns="http://www.w3.org/2000/svg" xmlns:xlink="http://www.w3.org/1999/xlink" width="1920" height="1080" viewBox="0 0 1920 1080">
  <defs>
    <clipPath id="clip-How_Advanced_image_pre_processing_main_image">
      <rect width="1920" height="1080"/>
    </clipPath>
  </defs>
  <g id="How_Advanced_image_pre_processing_main_image" data-name="How Advanced image pre processing main image" clip-path="url(#clip-How_Advanced_image_pre_processing_main_image)">
    <rect width="1920" height="1080" fill="#fff"/>
    <g id="Group_527" data-name="Group 527" transform="translate(98.39 -60.751)">
      <g id="Group_524" data-name="Group 524" transform="translate(1003.252 286.751)">
        <g id="Group_523" data-name="Group 523">
          <g id="Group_522" data-name="Group 522" transform="translate(0)">
            <path id="Path_532" data-name="Path 532" d="M285.307.79,143.055,143.042H285.307Z" transform="translate(-141.42 0.841)" fill="#7f8dc2"/>
            <path id="Path_533" data-name="Path 533" d="M568.551,0H315.107V172.843H142.264V562.731H568.549V0ZM481.6,414.079H229.215V357.862H481.6Zm0-115.934H229.215V241.928H481.6Z" transform="translate(-142.264)" fill="#7f8dc2"/>
          </g>
          <g id="magnifying-glass" transform="translate(179.153 259.06)">
            <rect id="Rectangle_819" data-name="Rectangle 819" width="21.627" height="64.881" transform="translate(198.586 213.902) rotate(-45)" fill="#c4cad9"/>
            <rect id="Rectangle_820" data-name="Rectangle 820" width="10.814" height="64.881" transform="translate(252.106 252.131) rotate(135)" fill="#b8bfcc"/>
            <path id="Path_524" data-name="Path 524" d="M158.612,367.013l15.293-15.293,7.646-22.939-22.939-22.939a10.814,10.814,0,0,0-15.293,0l-30.585,30.586a10.814,10.814,0,0,0,0,15.293l22.939,22.939Z" transform="translate(108.789 -84.297)" fill="#707070"/>
            <path id="Path_525" data-name="Path 525" d="M133.931,343.554l15.293-15.293,38.232,38.232-7.646,7.647-22.939,7.647-22.939-22.939A10.814,10.814,0,0,1,133.931,343.554Z" transform="translate(87.591 -91.423)" fill="#707070"/>
            <path id="Path_526" data-name="Path 526" d="M373.76,221.521h0a129.763,129.763,0,0,0,0-183.514h0a129.764,129.764,0,0,0-183.514,0h0a129.764,129.764,0,0,0,0,183.514h0A129.763,129.763,0,0,0,373.76,221.521Z" transform="translate(-152.214 0)" fill="#f7f8ff"/>
            <path id="Path_527" data-name="Path 527" d="M242.958,236.224a129.763,129.763,0,0,1,0-183.514L426.473,236.224A129.764,129.764,0,0,1,242.958,236.224Z" transform="translate(-204.95 -14.68)" fill="#f7f8ff"/>
            <path id="Path_528" data-name="Path 528" d="M359.9,207.664h0a86.51,86.51,0,0,0,0-122.343h0a86.51,86.51,0,0,0-122.343,0h0a86.509,86.509,0,0,0,0,122.343h0A86.509,86.509,0,0,0,359.9,207.664Z" transform="translate(-168.968 -16.705)" fill="#7f8dc2"/>
            <path id="Path_529" data-name="Path 529" d="M272.68,217.445a86.509,86.509,0,0,1,0-122.343L395.024,217.445A86.511,86.511,0,0,1,272.68,217.445Z" transform="translate(-204.087 -26.486)" fill="#7f8dc2"/>
            <path id="Path_530" data-name="Path 530" d="M115.433,454.276h0a32.441,32.441,0,0,0,0-45.879L45.894,338.858.015,384.737l69.539,69.539A32.441,32.441,0,0,0,115.433,454.276Z" transform="translate(244.447 -94.375)" fill="#405089"/>
            <path id="Path_531" data-name="Path 531" d="M128.6,463.131a32.441,32.441,0,0,1-45.879,0L13.185,393.592l22.939-22.939Z" transform="translate(231.277 -103.23)" fill="#405089"/>
          </g>
          <text id="A" transform="translate(306.53 427.135)" fill="#fff" font-size="119" font-family="Lato-Bold, Lato" font-weight="700"><tspan x="-41.323" y="0">A</tspan></text>
        </g>
      </g>
      <g id="telephone" transform="translate(171.61 287.121)">
        <path id="Path_538" data-name="Path 538" d="M360.867,524.348a57.981,57.981,0,0,1-57.811,57.811H71.811A57.981,57.981,0,0,1,14,524.348V61.81A57.981,57.981,0,0,1,71.811,4H303.056A57.981,57.981,0,0,1,360.867,61.81Z" transform="translate(-14 34.571)" fill="#263875"/>
        <path id="Path_539" data-name="Path 539" d="M360.867,520.345a57.981,57.981,0,0,1-57.811,57.811H71.811A57.981,57.981,0,0,1,14,520.345V57.807A57.981,57.981,0,0,1,71.811,0H303.056a57.981,57.981,0,0,1,57.811,57.811Z" transform="translate(-14 0.004)" fill="#263875"/>
        <path id="Path_540" data-name="Path 540" d="M49.27,53.5A19.27,19.27,0,1,1,30,72.766,19.327,19.327,0,0,1,49.27,53.5Z" transform="translate(124.163 461.987)" fill="#f7f8ff"/>
        <path id="Path_541" data-name="Path 541" d="M37.708,21.768A9.635,9.635,0,0,1,37.6,2.5h.106a9.635,9.635,0,1,1,0,19.27Z" transform="translate(107.109 21.609)" fill="#5d9cec"/>
        <path id="Path_542" data-name="Path 542" d="M69.541,21.768H40.635a9.635,9.635,0,1,1,0-19.27H69.541a9.635,9.635,0,1,1,0,19.27Z" transform="translate(132.798 21.609)" fill="#f7f8ff"/>
        <path id="Path_543" data-name="Path 543" d="M16,7H324.326V430.947H16Z" transform="translate(3.27 60.468)" fill="#fff"/>
        <path id="Path_544" data-name="Path 544" d="M21,40H232.974v9.635H21Z" transform="translate(46.446 344.174)" fill="#7f8dc2"/>
        <path id="Path_545" data-name="Path 545" d="M21,41H232.974v9.635H21Z" transform="translate(46.446 354.099)" fill="#fff"/>
        <path id="Path_546" data-name="Path 546" d="M21,42H232.974v9.635H21Z" transform="translate(46.446 361.445)" fill="#7f8dc2"/>
        <path id="Path_547" data-name="Path 547" d="M21,43H232.974v9.635H21Z" transform="translate(46.446 371.369)" fill="#fff"/>
        <path id="Path_548" data-name="Path 548" d="M21,44H232.974v9.635H21Z" transform="translate(46.446 378.715)" fill="#7f8dc2"/>
        <path id="Path_549" data-name="Path 549" d="M232.974,60.178V281.787H21V12H184.8V60.178Z" transform="translate(46.446 103.678)" fill="#7f8dc2"/>
        <path id="Path_550" data-name="Path 550" d="M86.176,60.178H38V12Z" transform="translate(193.245 103.678)" fill="#dbe3ff"/>
        <g id="Group_526" data-name="Group 526" transform="translate(105.987 221.658)">
          <path id="Path_551" data-name="Path 551" d="M150.219,42.271H34.635a9.635,9.635,0,1,1,0-19.27H150.219a9.635,9.635,0,0,1,0,19.27Z" transform="translate(-25 -23.001)" fill="#fff"/>
          <path id="Path_552" data-name="Path 552" d="M150.219,45.271H34.635a9.635,9.635,0,1,1,0-19.27H150.219a9.635,9.635,0,0,1,0,19.27Z" transform="translate(-25 2.905)" fill="#fff"/>
          <path id="Path_553" data-name="Path 553" d="M150.219,48.271H34.635a9.635,9.635,0,1,1,0-19.27H150.219a9.635,9.635,0,0,1,0,19.27Z" transform="translate(-25 28.81)" fill="#fff"/>
          <path id="Path_554" data-name="Path 554" d="M92.446,51.271H34.635a9.635,9.635,0,1,1,0-19.27H92.446a9.635,9.635,0,1,1,0,19.27Z" transform="translate(-25 54.716)" fill="#fff"/>
        </g>
      </g>
      <path id="Path_555" data-name="Path 555" d="M1708.39-12305.681h224.671v-201.872h191.517" transform="translate(-1159.484 13028.584)" fill="none" stroke="#cbcbcb" stroke-linecap="round" stroke-linejoin="round" stroke-width="10" stroke-dasharray="30"/>
    </g>
  </g>
</svg>
